<?xml version="1.0" standalone="no"?>
<!DOCTYPE svg PUBLIC "-//W3C//DTD SVG 20010904//EN"
 "http://www.w3.org/TR/2001/REC-SVG-20010904/DTD/svg10.dtd">
<svg version="1.0" xmlns="http://www.w3.org/2000/svg"
 width="2147.000000pt" height="540.000000pt" viewBox="0 0 2147.000000 540.000000"
 preserveAspectRatio="xMidYMid meet">
<metadata>
Created by potrace 1.15, written by Peter Selinger 2001-2017
</metadata>
<g transform="translate(0.000000,540.000000) scale(0.100000,-0.100000)"
fill="#31b380" stroke="none">
<path d="M0 2705 l0 -2685 3235 0 3235 0 0 2685 0 2685 -3235 0 -3235 0 0
-2685z m6170 -5 l0 -2390 -2935 0 -2935 0 0 2390 0 2390 2935 0 2935 0 0
-2390z"/>
<path d="M3597 3899 c-22 -20 -99 -222 -413 -1084 -212 -583 -401 -1104 -421
-1158 -40 -111 -38 -142 9 -182 39 -33 97 -34 132 -2 36 33 868 2322 860 2366
-9 43 -45 72 -97 78 -36 4 -48 1 -70 -18z"/>
<path d="M2285 3612 c-30 -19 -744 -727 -822 -816 -39 -44 -43 -54 -43 -102 0
-29 4 -65 10 -79 11 -28 688 -717 803 -816 61 -54 72 -59 113 -59 40 0 51 5
85 39 36 35 39 43 39 92 l0 53 -378 379 -378 378 345 345 c190 190 361 364
379 386 26 33 32 49 32 88 0 99 -103 162 -185 112z"/>
<path d="M4089 3607 c-19 -12 -42 -40 -53 -61 -35 -72 -33 -74 374 -481 203
-203 370 -374 370 -378 0 -5 -166 -175 -369 -379 -266 -266 -373 -379 -381
-404 -16 -46 1 -94 46 -134 36 -31 80 -39 126 -21 30 11 858 839 869 869 13
34 10 113 -4 140 -19 34 -827 841 -859 858 -39 20 -80 17 -119 -9z"/>
</g>
<g transform="translate(0.000000,540.000000) scale(0.100000,-0.100000)"
fill="#ffffff" stroke="none">
<path d="M7257 5382 c-16 -3 -17 -46 -17 -548 0 -299 2 -544 4 -544 2 0 15 17
27 37 34 55 122 150 189 204 116 92 240 139 375 139 232 0 394 -122 475 -359
71 -204 84 -455 51 -957 -31 -462 -78 -806 -195 -1409 -30 -154 -53 -281 -52
-282 2 -2 1311 -5 1383 -3 9 0 9 8 3 28 -23 69 -145 834 -179 1122 -37 312
-71 713 -87 1030 -20 380 83 653 280 750 192 95 472 5 759 -242 l57 -50 0 541
0 541 -1528 2 c-841 2 -1536 2 -1545 0z"/>
<path d="M11257 5382 c-15 -3 -17 -27 -17 -255 0 -618 -45 -1142 -141 -1627
-66 -335 -125 -528 -484 -1579 -47 -139 -84 -255 -82 -257 5 -5 1459 -6 1464
0 2 2 -7 44 -21 92 -46 160 -67 314 -73 527 -3 108 -2 197 1 197 4 0 42 -9 84
-19 229 -57 495 -48 664 23 21 9 40 16 44 16 4 0 4 -91 1 -202 -7 -237 -29
-394 -78 -557 -10 -35 -19 -67 -19 -72 0 -5 309 -9 735 -9 404 0 735 2 735 3
0 2 -70 208 -156 458 -378 1097 -442 1324 -514 1814 -55 371 -75 865 -49 1223
8 109 14 203 14 210 0 10 -199 13 -1046 15 -575 1 -1053 1 -1062 -1z m1106
-1179 c60 -191 110 -361 151 -513 27 -103 76 -322 76 -343 0 -15 -135 -51
-255 -68 -79 -11 -286 -6 -324 9 -17 7 -16 15 15 157 60 268 255 935 274 935
4 0 32 -80 63 -177z"/>
<path d="M14999 5382 l-26 -3 0 -362 c-1 -582 -40 -1021 -135 -1507 -64 -333
-127 -543 -433 -1438 -76 -221 -136 -405 -133 -407 5 -6 1459 -7 1464 -2 2 2
-4 25 -12 52 -49 159 -80 364 -90 598 -8 187 -12 177 68 153 25 -8 97 -22 160
-31 178 -27 348 -12 512 45 33 11 61 20 63 20 1 0 3 -48 3 -107 0 -204 -30
-456 -71 -608 -11 -38 -22 -83 -25 -100 l-6 -30 735 3 736 2 -121 353 c-441
1290 -483 1439 -557 1967 -51 364 -67 853 -40 1228 7 89 10 165 7 167 -5 6
-2055 12 -2099 7z m1150 -1337 c93 -308 188 -692 174 -706 -14 -13 -167 -48
-265 -61 -69 -8 -126 -9 -207 -2 -61 6 -113 13 -115 15 -6 6 39 212 88 404 39
155 88 322 162 553 l49 153 33 -98 c18 -54 55 -170 81 -258z"/>
<path d="M18000 5380 c0 -5 14 -74 31 -152 67 -312 123 -693 151 -1028 20
-243 17 -1123 -5 -1360 -51 -536 -114 -957 -173 -1162 -5 -17 32 -18 681 -18
650 0 687 1 680 17 -37 97 -103 396 -129 583 -19 137 -43 403 -51 555 -3 66
-8 149 -11 185 l-6 65 54 -75 c416 -577 663 -1056 672 -1302 l1 -28 765 0
c421 0 773 -1 783 0 13 0 -12 33 -83 111 -580 639 -914 1121 -1006 1456 -25
91 -30 311 -9 424 48 261 150 497 366 842 229 365 428 628 626 825 l73 72
-785 0 -785 0 -4 -22 c-3 -13 -8 -50 -11 -83 -32 -318 -177 -677 -398 -985
-61 -85 -196 -250 -205 -250 -24 0 76 891 142 1263 l13 77 -688 0 c-436 0
-689 -4 -689 -10z"/>
<path d="M11875 956 c-171 -42 -296 -163 -341 -331 -18 -64 -18 -206 0 -270
36 -136 122 -242 244 -302 70 -35 83 -38 183 -41 161 -6 256 27 357 121 100
96 142 199 142 354 0 202 -91 358 -254 434 -103 48 -224 61 -331 35z m235 -82
c61 -18 111 -48 158 -95 150 -149 147 -438 -6 -587 -61 -59 -119 -88 -204
-102 -226 -36 -412 100 -449 326 -32 198 77 400 244 453 76 24 185 27 257 5z"/>
<path d="M18479 952 c-207 -56 -339 -233 -339 -457 0 -239 140 -428 351 -475
90 -20 232 -10 301 22 51 24 158 110 158 127 0 4 -14 18 -31 30 l-31 23 -42
-40 c-136 -134 -367 -127 -508 14 -142 142 -152 402 -22 561 73 89 172 133
298 133 85 0 161 -31 212 -86 l34 -35 35 28 36 28 -50 47 c-66 61 -141 89
-251 94 -61 3 -104 -1 -151 -14z"/>
<path d="M7300 491 l0 -461 40 0 40 0 2 218 3 217 150 5 c131 4 156 8 198 29
180 88 161 358 -30 426 -36 13 -94 18 -225 22 l-178 6 0 -462z m385 353 c57
-30 85 -75 85 -139 0 -65 -29 -112 -85 -140 -34 -17 -60 -20 -170 -20 l-130 0
-3 150 c-1 82 0 155 3 163 4 11 30 13 133 11 105 -3 134 -8 167 -25z"/>
<path d="M9428 944 c-5 -4 -8 -211 -8 -461 l0 -453 45 0 45 0 2 218 3 217 76
3 76 3 129 -220 129 -221 48 0 48 0 -15 28 c-8 15 -67 113 -130 217 -95 158
-112 191 -98 196 9 4 37 13 62 20 94 28 150 108 150 214 0 109 -59 188 -162
221 -57 17 -387 33 -400 18z m359 -89 c166 -49 157 -262 -13 -304 -23 -6 -93
-11 -153 -11 l-111 0 0 165 0 165 113 0 c72 0 132 -6 164 -15z"/>
<path d="M14328 578 c-3 -362 -4 -374 -25 -414 -31 -58 -63 -76 -138 -77 -75
-2 -109 17 -140 79 -20 37 -22 39 -58 33 -20 -3 -39 -8 -42 -11 -3 -2 7 -27
21 -55 28 -57 69 -94 128 -113 51 -16 181 -9 224 14 44 23 88 87 101 147 7 30
11 191 11 409 l0 360 -39 0 -40 0 -3 -372z"/>
<path d="M16050 490 l0 -460 290 0 290 0 0 35 c0 27 -4 35 -17 35 -198 0 -466
6 -474 10 -6 4 -8 74 -7 181 l3 174 223 3 222 2 0 35 0 35 -225 0 -225 0 0
165 0 165 240 0 240 0 0 40 0 40 -280 0 -280 0 0 -460z"/>
<path d="M20380 910 l0 -39 156 -3 155 -3 -1 -417 -1 -418 46 0 45 0 0 420 0
420 155 0 155 0 0 40 0 40 -355 0 -355 0 0 -40z"/>
</g>
</svg>
