<?xml version="1.0" encoding="utf-8"?>
<!-- Generator: Adobe Illustrator 17.1.0, SVG Export Plug-In . SVG Version: 6.00 Build 0)  -->
<!DOCTYPE svg PUBLIC "-//W3C//DTD SVG 1.1//EN" "http://www.w3.org/Graphics/SVG/1.1/DTD/svg11.dtd">
<svg version="1.1" id="Layer_1" xmlns="http://www.w3.org/2000/svg" xmlns:xlink="http://www.w3.org/1999/xlink" x="0px" y="0px"
	 viewBox="0 0 170.1 56.7" enable-background="new 0 0 170.1 56.7" xml:space="preserve">
<path display="none" fill="#AAAAAA" d="M146.3,8.3L146.3,8.3L146.3,8.3l-23.1,11.2c-0.3,0.2-0.5,0.5-0.5,0.9v26.7c0,0.5,0.5,1,1,1
	h0.2h3.1h35.4l0,0c0.3,0,0.7-0.3,0.7-0.7v-3.6V22.4l-4.6-2.2v22.6c0,0.3-0.2,0.5-0.5,0.5h-30.1c-0.3,0-0.5-0.2-0.5-0.5V22.7
	c0-0.2,0.2-0.3,0.3-0.5l18.5-8.8c0.2,0,0.3,0,0.5,0l18.4,8.8c0.2,0,0.3,0.3,0.3,0.5v24.5c0,0.5,0.3,0.9,0.9,0.9h3.1
	c0.3,0,0.7-0.3,0.7-0.7v-27c0-0.3-0.2-0.7-0.5-0.9L146.3,8.3L146.3,8.3L146.3,8.3z"/>
<path display="none" fill="#AAAAAA" d="M162.1,8.3h-2.7c-0.5,0-1,0.3-1,1V13l4.6,2.2V9.1C163.1,8.6,162.6,8.3,162.1,8.3z"/>
<g display="none">
	<g display="inline">
		<path fill="#AAAAAA" d="M84.4,18c0,4.6,0,9.2,0,13.8c0,2.6,1.5,4.9,3.9,6c1.7,0.7,3.4,0.5,5.1,0.5c1.4,0,2.7-0.2,3.9-0.9
			c1-0.5,1.7-1.4,2.4-2.2c0.9,0.9,1.7,1.7,2.6,2.6c1.4,1.4,3.6,1.9,5.4,1.4c2.2-0.5,3.9-2.2,4.4-4.4c0.5-2-0.3-4.3-1.9-5.6
			c-1.4-1.2-2.4-2.9-4.3-3.4c-1.7-0.5-3.4,0.2-4.6,1.5c-1.9,1.9-3.6,3.9-5.4,5.8c-0.5,0.7-1.4,1-2.2,0.9c-1.2,0-2.4,0.2-3.4-0.3
			c-1-0.5-1.7-1.7-1.5-2.9c0-4.9,0-9.9,0-14.8C87.1,16.4,85.7,17.3,84.4,18z M104.6,30.2c1,0.2,1.7,1,2.4,1.7c0.5,0.5,0.9,1.2,0.5,2
			c-0.3,1-1.7,1.4-2.4,0.7c-0.9-0.9-1.7-1.7-2.6-2.6C103.1,31.4,103.6,30.4,104.6,30.2z"/>
	</g>
	<path display="inline" fill="#AAAAAA" d="M77.7,27.3c0.7-0.2,1-0.9,1.5-1.4c0.5-0.7,1.4-1.2,1.7-1.9c-0.7-1-1.7-1.7-2.4-2.6
		c-0.3-0.3-0.9-1-1.2-0.3c-0.9,0.9-1.7,1.7-2.6,2.6c-0.5,0.3,0,0.9,0.3,1C76,25.6,76.9,26.6,77.7,27.3z"/>
	<path display="inline" fill="#AAAAAA" d="M12.9,33.6c0.2,0.2,0.7,0.7,0.9,0.3c0.9-0.9,1.7-1.7,2.6-2.6c0.2-0.2,0.7-0.5,0.3-0.9
		c-0.9-0.9-1.7-1.7-2.6-2.6c-0.2-0.2-0.5-0.5-0.7-0.3c-0.9,0.9-1.7,1.7-2.6,2.6c-0.2,0.2-0.7,0.5-0.5,0.9
		C11.2,31.9,12.1,32.8,12.9,33.6z"/>
</g>
<path display="none" fill="#AAAAAA" d="M1.2,31.1v7.5c0.2,3.1,2.9,5.8,6,6c2.9,0,5.8,0,8.7,0c1,0,2,0,3.1-0.2
	c3.4-0.7,6.3-3.2,7.3-6.5c8,0,16,0,23.8,0c0.7,0,1.4,0,2-0.2c1.4-0.2,2.7-1,3.7-1.9c1,1,2.4,1.9,3.9,2c1.4,0,2.9,0,4.3,0
	c0.7,0,1.5,0,2.2-0.2c1.2-0.3,2.4-1,3.2-1.9c1,0.7,2,1.5,3.2,1.7c1.4,0.3,2.9,0.2,4.3,0.2c1.5,0,2.9,0,4.4,0c0-1.4,0-2.9,0-4.3
	c-2.2,0-4.3,0-6.5,0c-1-0.2-2-0.5-2.7-1.4c-0.3-0.3-0.5-1-0.5-1.5c0-1.5,0-2.9,0-4.4c-1.4,0.7-2.9,1.4-4.3,2.2c0,0.7,0,1.5,0,2.2
	c0,0.9-0.5,1.5-1.2,2c-0.7,0.5-1.7,0.7-2.6,0.7c-1,0-2.2,0.2-3.2-0.2c-1.4-0.3-2.4-1.5-2.6-2.9c0-1.4,0-2.9,0-4.3
	c-1.4,0.7-2.9,1.4-4.3,2.2c-0.2,1,0,2-0.2,3.2c-0.2,1-1,2-2.2,1.9c-8.2,0-16.5,0-24.7,0c0-2.4,0-4.8,0-7.1c-1.4,0.7-2.9,1.4-4.3,2.2
	c0,2.2,0,4.4,0,6.5c0,2.4-1.9,4.6-4.3,4.9c-0.5,0.2-1.2,0-1.7,0.2c-2.4,0-4.8,0-7.1,0c-0.5,0-1,0-1.5-0.2C6,39.2,5.2,38,5,36.6
	c0-2.7,0-5.6,0-8.3C4.1,29.7,2.7,30.4,1.2,31.1z"/>
<path display="none" fill="#AAAAAA" d="M59.7,48.2c0.3-0.2,0.5-0.3,0.7-0.5c0.9-0.9,1.7-1.7,2.6-2.6c0.9,0.9,1.9,1.9,2.7,2.7
	c0.2,0.2,0.3,0.3,0.5,0.3c0.2,0,0.3-0.2,0.5-0.2c0.7-0.9,1.5-1.5,2.4-2.2c0.2-0.2,0.3-0.3,0.5-0.5c0.2-0.2-0.2-0.5-0.3-0.7
	c-0.7-0.7-1.5-1.5-2.2-2.2c-0.2-0.2-0.3-0.3-0.7-0.5c-0.2-0.2-0.5,0-0.7,0.2c-0.9,1-1.9,1.9-2.7,2.7c-1-1-1.9-1.9-2.9-2.9
	c-0.2-0.2-0.5-0.2-0.7,0c-0.9,0.9-1.7,1.7-2.6,2.6c-0.2,0.2-0.3,0.3-0.3,0.7c0,0.2,0.2,0.3,0.3,0.5c0.9,0.9,1.7,1.7,2.4,2.4
	C59.2,48.1,59.4,48.2,59.7,48.2z"/>
<path display="none" fill="#AAAAAA" d="M39.8,22.6c0.2,0,0.3-0.2,0.5-0.3c0.7-0.7,1.5-1.5,2.2-2.2c0.2-0.2,0.5-0.3,0.5-0.7
	c0.2-0.2-0.2-0.5-0.3-0.7c-0.9-0.9-1.7-1.7-2.6-2.6c-0.2-0.2-0.3-0.3-0.7-0.2c-0.2,0-0.2,0.2-0.3,0.2c-0.9,0.9-1.7,1.7-2.6,2.6
	c-0.2,0.2-0.3,0.3-0.3,0.5c0,0.2,0.2,0.3,0.3,0.5c0.9,0.9,1.7,1.7,2.6,2.6C39.5,22.4,39.6,22.6,39.8,22.6z"/>
<path display="none" fill="#AAAAAA" d="M36.6,27.5c0.2,0,0.3-0.2,0.5-0.2c0.9-0.9,1.9-1.9,2.7-2.7c0.9,0.9,1.9,1.9,2.7,2.7
	c0.2,0.2,0.3,0.3,0.5,0.3c0.2,0,0.3-0.2,0.5-0.3c0.7-0.7,1.5-1.5,2.2-2.2c0.2-0.2,0.3-0.3,0.5-0.7c0.2-0.2-0.2-0.5-0.3-0.7
	c-0.7-0.7-1.5-1.5-2.2-2.2c-0.2-0.2-0.3-0.3-0.7-0.5c-0.2-0.2-0.5,0-0.7,0.2c-0.9,1-1.9,1.9-2.7,2.7c-1-0.9-1.9-1.9-2.7-2.7
	c-0.2-0.2-0.3-0.3-0.7-0.2c-0.4,0.1-0.5,0.3-0.7,0.5c-0.7,0.7-1.4,1.4-2.2,2.2C33.1,23.9,33,24,33,24.2c0,0.2,0.2,0.3,0.3,0.5
	c0.9,0.9,1.7,1.7,2.6,2.6C36.2,27.3,36.4,27.3,36.6,27.5z"/>
<path fill="#32b380" d="M157.8,19.9l0.1,22.8c0,0.3-0.2,0.5-0.5,0.5h-30c-0.3,0-0.5-0.2-0.5-0.5V22.5c0-0.2,0.1-0.4,0.3-0.5l18.7-9
	c0.1-0.1,0.3-0.1,0.4,0l18.5,8.9c0.2,0.1,0.3,0.3,0.3,0.5V47c0,0.5,0.4,0.8,0.8,0.8h3.1c0.4,0,0.6-0.3,0.6-0.6V20.1
	c0-0.4-0.2-0.7-0.5-0.8L146.1,7.8v0l0,0l0,0v0l-23.3,11.4c-0.3,0.1-0.5,0.5-0.5,0.8v26.8c0,0.5,0.4,1,1,1h0.1h3.1h35.4l0,0
	c0.4,0,0.7-0.3,0.7-0.6v-3.5l-0.1-21.6"/>
<path fill="#32b380" d="M161.9,7.8h-2.7c-0.5,0-0.9,0.4-0.9,0.9v3.9l4.6,2.2V8.8C162.8,8.2,162.4,7.8,161.9,7.8z"/>
<g>
	<g>
		<path fill="#eeeeee" d="M83.8,17.6c1.4-0.7,2.9-1.4,4.3-2.1c0,4.9,0,9.9,0,14.8c-0.1,1.2,0.6,2.4,1.6,2.9c1,0.6,2.3,0.4,3.5,0.4
			c0.8,0,1.6-0.3,2.2-0.9c1.8-1.9,3.6-3.9,5.4-5.9c1.1-1.2,2.9-2.1,4.6-1.5c1.8,0.6,2.9,2.2,4.3,3.4c1.6,1.4,2.3,3.6,1.8,5.6
			c-0.4,2.2-2.2,4-4.4,4.5c-1.9,0.5-4-0.1-5.4-1.4c-0.9-0.8-1.7-1.7-2.6-2.5c-0.7,0.8-1.4,1.7-2.4,2.2c-1.2,0.7-2.5,0.9-3.9,0.9
			c-1.7-0.1-3.6,0.2-5.2-0.5c-2.3-1-4-3.4-3.9-5.9C83.8,26.8,83.8,22.2,83.8,17.6z M102.1,31.7c0.9,0.9,1.7,1.8,2.6,2.6
			c0.8,0.7,2.1,0.3,2.5-0.6c0.3-0.7,0-1.5-0.6-2c-0.7-0.7-1.3-1.6-2.4-1.7C103.2,30,102.7,31.1,102.1,31.7z"/>
	</g>
	<path fill="#eeeeee" d="M76.9,20.8c0.4-0.6,0.9,0.1,1.2,0.4c0.8,0.9,1.7,1.6,2.4,2.5c-0.4,0.8-1.2,1.3-1.7,1.9
		c-0.5,0.4-0.9,1.1-1.6,1.4c-1-0.7-1.7-1.7-2.6-2.5c-0.3-0.3-0.8-0.7-0.3-1.1C75.2,22.5,76.1,21.6,76.9,20.8z"/>
	<path fill="#eeeeee" d="M12.7,27.4c0.3-0.2,0.6,0.2,0.8,0.3c0.8,0.9,1.7,1.7,2.5,2.6c0.3,0.3-0.1,0.6-0.3,0.8
		c-0.9,0.8-1.7,1.7-2.6,2.5c-0.3,0.3-0.7-0.1-0.9-0.3c-0.8-0.9-1.7-1.7-2.5-2.6c-0.2-0.4,0.3-0.6,0.4-0.8
		C11,29.1,11.8,28.2,12.7,27.4z"/>
</g>
<path fill="#eeeeee" d="M53.1,28.3c1.4-0.7,2.8-1.4,4.3-2.1c0,1.4,0,2.8,0,4.3c0.1,1.4,1.2,2.5,2.5,2.9c1.1,0.3,2.1,0.1,3.2,0.1
	c0.9,0,1.8-0.2,2.5-0.7c0.7-0.5,1.2-1.2,1.2-2.1c0-0.8,0-1.5,0-2.3c1.4-0.8,2.9-1.5,4.3-2.2c0,1.5,0,2.9,0,4.4
	c0,0.5,0.2,1.1,0.6,1.5c0.7,0.8,1.7,1.2,2.7,1.4c2.2,0.1,4.3,0,6.5,0c0,1.4,0,2.8,0,4.2c-1.5,0-3,0-4.5,0c-1.4,0-2.8,0.2-4.2-0.2
	c-1.2-0.3-2.3-1-3.2-1.8c-0.9,0.9-2,1.6-3.3,1.8c-0.7,0.2-1.5,0.1-2.2,0.1c-1.4,0-2.9,0-4.3,0c-1.5-0.1-2.8-1-3.9-2
	c-1.1,0.9-2.3,1.7-3.7,1.9c-0.7,0.1-1.3,0.1-2,0.1c-8,0-16,0-24,0c-1.1,3.3-4,5.9-7.4,6.5c-1,0.2-2,0.1-3,0.1c-2.9,0-5.8,0-8.7,0
	c-3.1-0.1-5.8-2.9-5.9-6v-7.5c1.4-0.7,2.8-1.4,4.3-2.1c0,2.8,0,5.6,0,8.4c0.1,1.3,1,2.6,2.3,2.9c0.5,0.2,1,0.1,1.6,0.1
	c2.4,0,4.7,0,7.1,0c0.6,0,1.1,0,1.7-0.1c2.3-0.4,4.3-2.6,4.3-5c0-2.2,0-4.4,0-6.6c1.4-0.7,2.9-1.5,4.3-2.2c0,2.4,0,4.8,0,7.2
	c8.3,0,16.5,0,24.8,0c1.1,0,2.1-0.9,2.2-2C53,30.5,52.9,29.4,53.1,28.3z"/>
<path fill="#eeeeee" d="M58.6,41.6c0.2-0.2,0.5-0.2,0.7,0c1,1,1.9,1.9,2.9,2.9c0.9-0.9,1.9-1.9,2.8-2.8c0.2-0.2,0.4-0.3,0.6-0.2
	c0.2,0.1,0.4,0.4,0.6,0.5c0.7,0.7,1.5,1.5,2.2,2.2c0.2,0.2,0.4,0.4,0.3,0.6c-0.1,0.2-0.3,0.4-0.5,0.6c-0.8,0.8-1.5,1.5-2.3,2.3
	c-0.1,0.1-0.3,0.3-0.5,0.3c-0.2,0-0.3-0.2-0.5-0.3c-0.9-0.9-1.8-1.8-2.8-2.8c-0.8,0.8-1.7,1.7-2.5,2.5c-0.2,0.2-0.4,0.4-0.6,0.5
	c-0.2,0.1-0.4-0.1-0.6-0.3c-0.8-0.8-1.6-1.7-2.5-2.5c-0.1-0.1-0.3-0.3-0.3-0.5c0-0.3,0.2-0.4,0.3-0.6C56.9,43.3,57.8,42.4,58.6,41.6
	z"/>
<path fill="#eeeeee" d="M39,15.6c0.2-0.1,0.4,0.1,0.6,0.2c0.8,0.9,1.7,1.7,2.6,2.6c0.2,0.2,0.4,0.4,0.3,0.6
	c-0.1,0.3-0.4,0.5-0.6,0.7c-0.7,0.7-1.5,1.5-2.2,2.2c-0.1,0.1-0.3,0.3-0.5,0.3c-0.2,0-0.4-0.2-0.5-0.3c-0.8-0.8-1.7-1.7-2.5-2.5
	c-0.1-0.1-0.3-0.3-0.3-0.5c0-0.2,0.2-0.3,0.3-0.5c0.8-0.8,1.7-1.7,2.5-2.5C38.8,15.8,38.9,15.7,39,15.6z"/>
<path fill="#eeeeee" d="M35.8,20.6c0.2-0.1,0.4,0.1,0.6,0.2c0.9,0.9,1.9,1.9,2.8,2.8c0.9-0.9,1.9-1.9,2.8-2.8
	c0.2-0.2,0.4-0.3,0.6-0.2c0.2,0.1,0.4,0.4,0.6,0.5c0.7,0.7,1.5,1.5,2.2,2.2c0.2,0.2,0.4,0.4,0.3,0.6c-0.1,0.3-0.4,0.4-0.5,0.6
	c-0.7,0.7-1.5,1.5-2.2,2.2c-0.1,0.1-0.3,0.3-0.5,0.3c-0.2,0-0.4-0.2-0.5-0.3c-0.9-0.9-1.8-1.8-2.8-2.8c-0.9,0.9-1.9,1.9-2.8,2.8
	c-0.1,0.1-0.3,0.3-0.5,0.3c-0.2,0-0.3-0.2-0.5-0.3c-0.8-0.8-1.7-1.7-2.5-2.5c-0.1-0.2-0.3-0.3-0.3-0.6c0.1-0.2,0.2-0.3,0.3-0.5
	c0.7-0.7,1.4-1.4,2.1-2.1C35.4,21,35.5,20.7,35.8,20.6z"/>
</svg>
